<?xml version="1.0" encoding="utf-8"?>
<!-- Generator: Adobe Illustrator 25.1.0, SVG Export Plug-In . SVG Version: 6.00 Build 0)  -->
<svg version="1.1" id="Layer_1" xmlns="http://www.w3.org/2000/svg" xmlns:xlink="http://www.w3.org/1999/xlink" x="0px" y="0px"
	 viewBox="0 0 100 100" style="enable-background:new 0 0 100 100;" xml:space="preserve">
<style type="text/css">
	.st0{fill:#21B24B;}
	.st1{fill:#FFFFFF;}
	.st2{font-family:'Montserrat-Bold';}
	.st3{font-size:18px;}
	.st4{font-family:'Montserrat-Medium';}
	.st5{font-size:6px;}
</style>
<g>
	<g>
		<path class="st0" d="M40.4,47.7c0,3-1.5,3-2,3c-1.3,0-1.9-1-1.9-3V39h-3.9v8.7c0,4.2,2.1,6.6,5.7,6.6c3.8,0,6-2.5,6-6.7V39h-3.9
			V47.7z"/>
		<path class="st0" d="M56,39l-2.4,7.1c-0.1,0.4-0.3,0.8-0.4,1.2C53,46.9,50.5,39,50.5,39h-4.2l4.9,15.1h3.4L60.2,39H56z"/>
	</g>
	<path class="st0" d="M67.9,50.9l13-4.3l-13-4.3l10.4-8.9l-13.7,1l6.2-12.2l-12.2,6.2l1-13.7l-8.9,10.4l-4.3-13l-4.3,13l-8.9-10.4
		l1,13.7l-12.2-6.2l6.2,12.2l-13.7-1l10.4,8.9l-13,4.3l13,4.3l-10.4,8.9l13.7-1l-6.2,12.2l12.2-6.2l-1,13.7l8.9-10.4l4.3,13l4.3-13
		l8.9,10.4l-1-13.7l12.2,6.2l-6.2-12.2l13.7,1L67.9,50.9z M64,58.4L62.7,60c-0.9,1.1-1.9,2.1-3,3l-1.6,1.3l-1.8,1
		c-1.2,0.7-2.5,1.2-3.9,1.6l-2,0.6l-2,0.2c-0.7,0.1-1.4,0.1-2.1,0.1c-0.7,0-1.4,0-2.1-0.1l-2-0.2l-2-0.6c-1.3-0.4-2.7-0.9-3.9-1.6
		l-1.8-1L33,63c-1.1-0.9-2.1-1.9-3-3l-1.3-1.6l-1-1.8c-0.7-1.2-1.2-2.5-1.6-3.9l-0.6-2l-0.2-2c-0.1-0.7-0.1-1.4-0.1-2.1
		c0-0.7,0-1.4,0.1-2.1l0.2-2l0.6-2c0.4-1.3,0.9-2.7,1.6-3.9l1-1.8l1.3-1.6c0.9-1.1,1.9-2.1,3-3l1.6-1.3l1.8-1
		c1.2-0.7,2.5-1.2,3.9-1.6l2-0.6l2-0.2c0.7-0.1,1.4-0.1,2.1-0.1c0.7,0,1.4,0,2.1,0.1l2,0.2l2,0.6c1.4,0.4,2.7,0.9,3.9,1.6l1.8,1
		l1.6,1.3c1.1,0.9,2.1,1.9,3,3l1.3,1.6l1,1.8c0.7,1.2,1.2,2.5,1.6,3.9l0.6,2l0.2,2c0.1,0.7,0.1,1.4,0.1,2.1c0,0.7,0,1.4-0.1,2.1
		l-0.2,2l-0.6,2c-0.4,1.3-0.9,2.7-1.6,3.9L64,58.4z"/>
	<g>
		<path class="st0" d="M81.6,55.3v17.5c0,2.6-1.3,5.1-3.4,6.7l0,0l-10.8,7.6l-10.7-7.6c-2.1-1.6-3.4-4.1-3.4-6.7V55.3L67.5,51
			L81.6,55.3z"/>
		<g>
			<path class="st1" d="M67.5,85.2l-9.9-7c-1.7-1.3-2.7-3.3-2.7-5.5V56.5l12.6-3.8l12.6,3.8v16.3c0,2.1-1,4.2-2.7,5.5L67.5,85.2z
				 M58.2,77.5l9.3,6.6l9.3-6.6c1.5-1.1,2.3-2.9,2.3-4.7V57.2l-11.6-3.5l-11.6,3.5v15.6C55.9,74.6,56.7,76.4,58.2,77.5z"/>
		</g>
	</g>
</g>
<text transform="matrix(1 0 0 1 61.4332 73.5512)" class="st1 st2 st3">0</text>
<text transform="matrix(1 0 0 1 49.272 37.3822)" class="st0 st4 st5">low</text>
</svg>
